<svg width="149" height="48" viewBox="0 0 149 48" fill="none" xmlns="http://www.w3.org/2000/svg">
<path d="M62.4281 14.4521H55.5199V34.2139H62.4281C68.7417 34.2139 72.8469 30.3351 72.8469 24.3613C72.8469 18.3591 68.7417 14.4521 62.4281 14.4521ZM59.4836 30.8447V17.7929H62.2865C66.4484 17.7929 68.7983 20.256 68.7983 24.3613C68.7983 28.4665 66.4484 30.8447 62.2865 30.8447H59.4836ZM82.5522 21.5301C84.5906 21.5301 86.2327 22.8324 86.2894 24.8992H78.8433C79.1547 22.7475 80.6553 21.5301 82.5522 21.5301ZM89.9982 29.2876H85.7231C85.2135 30.3351 84.2792 31.1845 82.5805 31.1845C80.5986 31.1845 79.0132 29.8821 78.815 27.5605H90.2814C90.3663 27.0509 90.3946 26.5413 90.3946 26.0317C90.3946 21.3602 87.1953 18.2742 82.6654 18.2742C78.0223 18.2742 74.7947 21.4168 74.7947 26.3714C74.7947 31.2977 78.1072 34.4687 82.6654 34.4687C86.5442 34.4687 89.1489 32.1754 89.9982 29.2876ZM93.2877 34.2139H97.2514V13.263H93.2877V34.2139ZM101.79 29.3442C101.79 32.9398 103.801 34.2139 106.802 34.2139H109.293V30.873H107.453C106.207 30.873 105.782 30.4201 105.782 29.3725V21.7849H109.293V18.529H105.782V14.6503H101.79V18.529H99.9218V21.7849H101.79V29.3442ZM111.125 26.3148C111.125 31.2128 114.296 34.4687 118.259 34.4687C120.751 34.4687 122.535 33.2796 123.469 31.9206V34.2139H127.461V18.529H123.469V20.7657C122.535 19.4633 120.807 18.2742 118.288 18.2742C114.296 18.2742 111.125 21.4168 111.125 26.3148ZM123.469 26.3714C123.469 29.3442 121.487 30.9863 119.307 30.9863C117.184 30.9863 115.173 29.2876 115.173 26.3148C115.173 23.342 117.184 21.7566 119.307 21.7566C121.487 21.7566 123.469 23.3987 123.469 26.3714ZM140.618 34.2139H144.582V30.1936H147.074V26.7395H144.582V13.8292H139.967L130.709 27.0792V30.1936H140.618V34.2139ZM135.069 26.7395L140.873 18.076V26.7395H135.069Z" fill="white"/>
<mask id="path-2-inside-1_245_2749" fill="white">
<path d="M0 48L24.0002 0L48.0001 48H0Z"/>
</mask>
<path d="M22.4647 -1.45553e-07L22.4647 30.3229H25.5356L25.5356 1.45553e-07L22.4647 -1.45553e-07ZM23.0896 29.0866L-0.910578 46.7637L0.910578 49.2363L24.9107 31.5592L23.0896 29.0866ZM48.9106 46.7637L24.9107 29.0866L23.0896 31.5592L47.0895 49.2363L48.9106 46.7637ZM24.0002 0L26.7468 -1.37333L24.0002 -6.86668L21.2535 -1.37334L24.0002 0ZM0 48L-2.74667 46.6267L-4.96879 51.0709H0V48ZM48.0001 48V51.0709H52.9688L50.7467 46.6267L48.0001 48ZM2.74667 49.3733L26.7468 1.37334L21.2535 -1.37334L-2.74667 46.6267L2.74667 49.3733ZM21.2535 1.37333L45.2534 49.3733L50.7467 46.6267L26.7468 -1.37333L21.2535 1.37333ZM0 51.0709H48.0001V44.9291H0V51.0709Z" fill="#F24040" mask="url(#path-2-inside-1_245_2749)"/>
</svg>
