<svg width="523" height="513" viewBox="0 0 523 513" fill="none" xmlns="http://www.w3.org/2000/svg">
<mask id="mask0_1_96" style="mask-type:luminance" maskUnits="userSpaceOnUse" x="0" y="0" width="523" height="513">
<path d="M0.502686 512.343L261.288 0.343018L522.07 512.343H0.502686Z" fill="white"/>
</mask>
<g mask="url(#mask0_1_96)">
<path d="M244.603 0.342743V323.787H277.971V0.342743H244.603ZM251.393 310.6L-9.39157 499.156L10.397 525.53L271.181 336.974L251.393 310.6ZM531.963 499.156L271.181 310.6L251.393 336.974L512.175 525.53L531.963 499.156ZM261.288 0.342743L291.132 -14.3061L261.288 -72.9019L231.442 -14.3062L261.288 0.342743ZM0.50272 512.343L-29.3425 497.694L-53.4879 545.099H0.50272V512.343ZM522.07 512.343V545.099H576.059L551.914 497.694L522.07 512.343ZM30.3479 526.991L291.132 14.9917L231.442 -14.3062L-29.3425 497.694L30.3479 526.991ZM231.442 14.9916L492.224 526.991L551.914 497.694L291.132 -14.3061L231.442 14.9916ZM0.50272 545.099H522.07V479.587H0.50272V545.099Z" fill="#FF4236"/>
</g>
</svg>
